<mxfile host="app.diagrams.net" modified="2022-04-21T03:27:45.037Z" agent="5.0 (Windows NT 10.0; Win64; x64) AppleWebKit/537.36 (KHTML, like Gecko) Chrome/96.0.4664.45 Safari/537.36" etag="g6HUJSnJViY2p_Inlgjn" version="17.4.0" type="github">
  <diagram id="HInJEvRqGOxn4rhsqnMk" name="Page-1">
    <mxGraphModel dx="1329" dy="1934" grid="1" gridSize="10" guides="1" tooltips="1" connect="1" arrows="1" fold="1" page="1" pageScale="1" pageWidth="850" pageHeight="1100" math="0" shadow="0">
      <root>
        <mxCell id="0" />
        <mxCell id="1" parent="0" />
        <mxCell id="upmaXBhPf4axASo1UPmq-2" value="输入信号" style="text;html=1;strokeColor=none;fillColor=none;align=center;verticalAlign=middle;whiteSpace=wrap;rounded=0;" vertex="1" parent="1">
          <mxGeometry x="330" y="170" width="60" height="30" as="geometry" />
        </mxCell>
        <mxCell id="upmaXBhPf4axASo1UPmq-20" style="edgeStyle=orthogonalEdgeStyle;rounded=0;orthogonalLoop=1;jettySize=auto;html=1;entryX=0;entryY=0.75;entryDx=0;entryDy=0;" edge="1" parent="1" source="upmaXBhPf4axASo1UPmq-3" target="upmaXBhPf4axASo1UPmq-9">
          <mxGeometry relative="1" as="geometry" />
        </mxCell>
        <mxCell id="upmaXBhPf4axASo1UPmq-3" value="室外传感器：&lt;br&gt;温度：数值&lt;br&gt;湿度：数值" style="rounded=0;whiteSpace=wrap;html=1;" vertex="1" parent="1">
          <mxGeometry x="120" y="120" width="120" height="60" as="geometry" />
        </mxCell>
        <mxCell id="upmaXBhPf4axASo1UPmq-18" style="edgeStyle=orthogonalEdgeStyle;rounded=0;orthogonalLoop=1;jettySize=auto;html=1;entryX=0;entryY=0.75;entryDx=0;entryDy=0;" edge="1" parent="1" source="upmaXBhPf4axASo1UPmq-7" target="upmaXBhPf4axASo1UPmq-9">
          <mxGeometry relative="1" as="geometry">
            <Array as="points">
              <mxPoint x="320" y="400" />
              <mxPoint x="320" y="205" />
            </Array>
          </mxGeometry>
        </mxCell>
        <mxCell id="upmaXBhPf4axASo1UPmq-7" value="空调：&lt;br&gt;空调开关状态：开关量&lt;br&gt;空调运行状态：枚举（数值）" style="rounded=0;whiteSpace=wrap;html=1;" vertex="1" parent="1">
          <mxGeometry x="120" y="360" width="170" height="80" as="geometry" />
        </mxCell>
        <mxCell id="upmaXBhPf4axASo1UPmq-9" value="控制程序" style="rounded=0;whiteSpace=wrap;html=1;" vertex="1" parent="1">
          <mxGeometry x="400" y="160" width="120" height="60" as="geometry" />
        </mxCell>
        <mxCell id="upmaXBhPf4axASo1UPmq-17" style="edgeStyle=orthogonalEdgeStyle;rounded=0;orthogonalLoop=1;jettySize=auto;html=1;entryX=0;entryY=0.75;entryDx=0;entryDy=0;" edge="1" parent="1" source="upmaXBhPf4axASo1UPmq-11" target="upmaXBhPf4axASo1UPmq-9">
          <mxGeometry relative="1" as="geometry">
            <Array as="points">
              <mxPoint x="320" y="520" />
              <mxPoint x="320" y="205" />
            </Array>
          </mxGeometry>
        </mxCell>
        <mxCell id="upmaXBhPf4axASo1UPmq-11" value="新风：&lt;br&gt;新风开关状态：开关量&lt;br&gt;新风运行状态：枚举（数值）" style="rounded=0;whiteSpace=wrap;html=1;" vertex="1" parent="1">
          <mxGeometry x="120" y="480" width="170" height="80" as="geometry" />
        </mxCell>
        <mxCell id="upmaXBhPf4axASo1UPmq-19" style="edgeStyle=orthogonalEdgeStyle;rounded=0;orthogonalLoop=1;jettySize=auto;html=1;entryX=0;entryY=0.75;entryDx=0;entryDy=0;" edge="1" parent="1" source="upmaXBhPf4axASo1UPmq-12" target="upmaXBhPf4axASo1UPmq-9">
          <mxGeometry relative="1" as="geometry" />
        </mxCell>
        <mxCell id="upmaXBhPf4axASo1UPmq-12" value="室内传感器：&lt;br&gt;温度：数值&lt;br&gt;湿度：数值" style="rounded=0;whiteSpace=wrap;html=1;" vertex="1" parent="1">
          <mxGeometry x="120" y="240" width="120" height="60" as="geometry" />
        </mxCell>
        <mxCell id="upmaXBhPf4axASo1UPmq-13" value="输出信号" style="text;html=1;strokeColor=none;fillColor=none;align=center;verticalAlign=middle;whiteSpace=wrap;rounded=0;" vertex="1" parent="1">
          <mxGeometry x="460" y="80" width="60" height="30" as="geometry" />
        </mxCell>
        <mxCell id="upmaXBhPf4axASo1UPmq-33" style="edgeStyle=orthogonalEdgeStyle;rounded=0;orthogonalLoop=1;jettySize=auto;html=1;entryX=1;entryY=0.75;entryDx=0;entryDy=0;" edge="1" parent="1" source="upmaXBhPf4axASo1UPmq-21" target="upmaXBhPf4axASo1UPmq-9">
          <mxGeometry relative="1" as="geometry" />
        </mxCell>
        <mxCell id="upmaXBhPf4axASo1UPmq-21" value="空调：&lt;br&gt;空调开关状态：开关量&lt;br&gt;空调运行状态：枚举（数值）" style="rounded=0;whiteSpace=wrap;html=1;" vertex="1" parent="1">
          <mxGeometry x="640" y="360" width="170" height="80" as="geometry" />
        </mxCell>
        <mxCell id="upmaXBhPf4axASo1UPmq-34" style="edgeStyle=orthogonalEdgeStyle;rounded=0;orthogonalLoop=1;jettySize=auto;html=1;entryX=1;entryY=0.75;entryDx=0;entryDy=0;" edge="1" parent="1" source="upmaXBhPf4axASo1UPmq-22" target="upmaXBhPf4axASo1UPmq-9">
          <mxGeometry relative="1" as="geometry" />
        </mxCell>
        <mxCell id="upmaXBhPf4axASo1UPmq-22" value="新风：&lt;br&gt;新风开关状态：开关量&lt;br&gt;新风运行状态：枚举（数值）" style="rounded=0;whiteSpace=wrap;html=1;" vertex="1" parent="1">
          <mxGeometry x="640" y="480" width="170" height="80" as="geometry" />
        </mxCell>
        <mxCell id="upmaXBhPf4axASo1UPmq-24" style="edgeStyle=orthogonalEdgeStyle;rounded=0;orthogonalLoop=1;jettySize=auto;html=1;entryX=0;entryY=0.75;entryDx=0;entryDy=0;" edge="1" parent="1" source="upmaXBhPf4axASo1UPmq-23" target="upmaXBhPf4axASo1UPmq-9">
          <mxGeometry relative="1" as="geometry" />
        </mxCell>
        <mxCell id="upmaXBhPf4axASo1UPmq-23" value="烟雾浓度传感器&lt;br&gt;警报信号：开关量" style="rounded=0;whiteSpace=wrap;html=1;" vertex="1" parent="1">
          <mxGeometry x="120" y="20" width="120" height="60" as="geometry" />
        </mxCell>
        <mxCell id="upmaXBhPf4axASo1UPmq-27" style="edgeStyle=orthogonalEdgeStyle;rounded=0;orthogonalLoop=1;jettySize=auto;html=1;entryX=0;entryY=0.75;entryDx=0;entryDy=0;" edge="1" parent="1" source="upmaXBhPf4axASo1UPmq-26" target="upmaXBhPf4axASo1UPmq-9">
          <mxGeometry relative="1" as="geometry" />
        </mxCell>
        <mxCell id="upmaXBhPf4axASo1UPmq-26" value="排风通道消防风阀&lt;br&gt;阀门开关：开关量" style="rounded=0;whiteSpace=wrap;html=1;" vertex="1" parent="1">
          <mxGeometry x="120" y="-60" width="120" height="60" as="geometry" />
        </mxCell>
        <mxCell id="upmaXBhPf4axASo1UPmq-32" style="edgeStyle=orthogonalEdgeStyle;rounded=0;orthogonalLoop=1;jettySize=auto;html=1;entryX=1;entryY=0.75;entryDx=0;entryDy=0;" edge="1" parent="1" source="upmaXBhPf4axASo1UPmq-30" target="upmaXBhPf4axASo1UPmq-9">
          <mxGeometry relative="1" as="geometry" />
        </mxCell>
        <mxCell id="upmaXBhPf4axASo1UPmq-30" value="排风通道消防风阀&lt;br&gt;阀门开关：开关量" style="rounded=0;whiteSpace=wrap;html=1;" vertex="1" parent="1">
          <mxGeometry x="640" y="-60" width="120" height="60" as="geometry" />
        </mxCell>
      </root>
    </mxGraphModel>
  </diagram>
</mxfile>
